<?xml version="1.0" encoding="UTF-8"?>
<svg xmlns="http://www.w3.org/2000/svg" xmlns:xlink="http://www.w3.org/1999/xlink" width="48px" height="48px" viewBox="0 0 48 48" version="1.1">
<g id="surface1">
<path style=" stroke:none;fill-rule:nonzero;fill:rgb(100%,27.058824%,0%);fill-opacity:1;" d="M 46.5 24 C 46.5 36.425781 36.425781 46.5 24 46.5 C 11.574219 46.5 1.5 36.425781 1.5 24 C 1.5 11.574219 11.574219 1.5 24 1.5 C 36.425781 1.5 46.5 11.574219 46.5 24 Z M 46.5 24 "/>
<path style=" stroke:none;fill-rule:nonzero;fill:rgb(100%,100%,100%);fill-opacity:1;" d="M 39 24 C 39 22.34375 37.65625 21 36 21 C 34.914062 21 33.960938 21.578125 33.433594 22.449219 C 31.261719 20.761719 28.191406 19.671875 24.753906 19.527344 L 26.105469 11.425781 L 31.320312 12.726562 C 31.378906 12.742188 31.441406 12.734375 31.5 12.734375 C 31.5 12.742188 31.5 12.746094 31.5 12.75 C 31.5 13.992188 32.507812 15 33.75 15 C 34.992188 15 36 13.992188 36 12.75 C 36 11.507812 34.992188 10.5 33.75 10.5 C 33.011719 10.5 32.367188 10.859375 31.957031 11.40625 C 31.875 11.34375 31.785156 11.296875 31.679688 11.273438 L 25.679688 9.773438 C 25.476562 9.71875 25.265625 9.757812 25.089844 9.871094 C 24.914062 9.988281 24.792969 10.171875 24.761719 10.375 L 23.261719 19.375 C 23.25 19.429688 23.261719 19.476562 23.265625 19.527344 C 19.820312 19.667969 16.742188 20.761719 14.566406 22.449219 C 14.039062 21.578125 13.085938 21 12 21 C 10.34375 21 9 22.34375 9 24 C 9 25.46875 10.050781 26.683594 11.445312 26.949219 C 11.316406 27.449219 11.25 27.96875 11.25 28.5 C 11.25 33.472656 16.957031 37.5 24 37.5 C 31.042969 37.5 36.75 33.472656 36.75 28.5 C 36.75 27.96875 36.683594 27.449219 36.554688 26.949219 C 37.949219 26.683594 39 25.46875 39 24 Z M 16.5 26.25 C 16.5 25.007812 17.507812 24 18.75 24 C 19.992188 24 21 25.007812 21 26.25 C 21 27.492188 19.992188 28.5 18.75 28.5 C 17.507812 28.5 16.5 27.492188 16.5 26.25 Z M 29.710938 32.621094 C 28.167969 33.832031 26.136719 34.5 24 34.5 C 21.863281 34.5 19.832031 33.832031 18.289062 32.621094 C 17.960938 32.367188 17.902344 31.894531 18.160156 31.570312 C 18.414062 31.246094 18.886719 31.1875 19.210938 31.441406 C 20.496094 32.445312 22.195312 33 24 33 C 25.804688 33 27.503906 32.445312 28.789062 31.441406 C 29.113281 31.1875 29.585938 31.246094 29.839844 31.570312 C 30.097656 31.894531 30.039062 32.367188 29.710938 32.621094 Z M 29.25 28.5 C 28.007812 28.5 27 27.492188 27 26.25 C 27 25.007812 28.007812 24 29.25 24 C 30.492188 24 31.5 25.007812 31.5 26.25 C 31.5 27.492188 30.492188 28.5 29.25 28.5 Z M 29.25 28.5 "/>
</g>
</svg>
