<?xml version="1.0" encoding="UTF-8"?>
<svg xmlns="http://www.w3.org/2000/svg" xmlns:xlink="http://www.w3.org/1999/xlink" width="54px" height="48px" viewBox="0 0 54 48" version="1.1">
<g id="surface1">
<path style=" stroke:none;fill-rule:nonzero;fill:rgb(54.509804%,7.058824%,99.215686%);fill-opacity:1;" d="M 31.265625 18.882812 C 31.265625 16.808594 29.804688 15.664062 27.234375 15.664062 L 22.507812 15.664062 L 22.507812 22.339844 L 26.492188 22.339844 C 29.570312 22.332031 31.265625 21.09375 31.265625 18.882812 Z M 48.46875 17.679688 C 47.578125 14.785156 47.445312 11.230469 47.550781 8.484375 C 47.652344 5.625 45.421875 3 42.421875 3 L 11.597656 3 C 8.585938 3 6.367188 5.632812 6.46875 8.484375 C 6.5625 11.230469 6.441406 14.785156 5.550781 17.679688 C 4.648438 20.585938 3.140625 22.425781 0.65625 22.660156 L 0.65625 25.332031 C 3.132812 25.566406 4.648438 27.402344 5.550781 30.308594 C 6.441406 33.207031 6.570312 36.757812 6.46875 39.507812 C 6.367188 42.367188 8.597656 44.992188 11.597656 44.992188 L 42.414062 44.992188 C 45.421875 44.992188 47.644531 42.355469 47.539062 39.507812 C 47.445312 36.757812 47.570312 33.207031 48.460938 30.308594 C 49.359375 27.402344 50.867188 25.566406 53.34375 25.332031 L 53.34375 22.660156 C 50.878906 22.425781 49.359375 20.585938 48.46875 17.679688 Z M 28.144531 35.164062 L 18.964844 35.164062 L 18.964844 12.824219 L 28.097656 12.824219 C 32.15625 12.824219 34.820312 15.019531 34.820312 18.394531 C 34.820312 20.765625 33.027344 22.882812 30.742188 23.25 L 30.742188 23.371094 C 33.851562 23.710938 35.945312 25.867188 35.945312 28.835938 C 35.945312 32.785156 33.007812 35.164062 28.144531 35.164062 Z M 27.207031 24.976562 L 22.507812 24.976562 L 22.507812 32.324219 L 27.414062 32.324219 C 30.617188 32.324219 32.316406 31.039062 32.316406 28.621094 C 32.316406 26.210938 30.570312 24.976562 27.207031 24.976562 Z M 27.207031 24.976562 "/>
</g>
</svg>
