<svg xmlns="http://www.w3.org/2000/svg" xmlns:xlink="http://www.w3.org/1999/xlink" viewBox="0,0,256,256" width="48px" height="48px" fill-rule="nonzero"><g fill="none" fill-rule="nonzero" stroke="none" stroke-width="1" stroke-linecap="butt" stroke-linejoin="miter" stroke-miterlimit="10" stroke-dasharray="" stroke-dashoffset="0" font-family="none" font-weight="none" font-size="none" text-anchor="none" style="mix-blend-mode: normal"><g transform="scale(5.33333,5.33333)"><path d="M6,10c0,-2.209 1.791,-4 4,-4h28c2.209,0 4,1.791 4,4v28c0,2.209 -1.791,4 -4,4h-28c-2.209,0 -4,-1.791 -4,-4z" fill="#ff7022"></path><path d="M9,9v30h30v-30zM23.691,31l-0.762,-2.91h-3.916l-0.761,2.91h-3.037l4.443,-14.219h2.627l4.473,14.219zM30.85,31h-2.773v-10.566h2.773zM30.552,18.754c-0.271,0.28 -0.636,0.42 -1.099,0.42c-0.463,0 -0.828,-0.14 -1.099,-0.42c-0.271,-0.28 -0.405,-0.632 -0.405,-1.055c0,-0.43 0.137,-0.781 0.41,-1.055c0.273,-0.274 0.639,-0.41 1.094,-0.41c0.455,0 0.82,0.137 1.094,0.41c0.274,0.273 0.41,0.625 0.41,1.055c0,0.423 -0.135,0.775 -0.405,1.055z" fill="#1c0802"></path><path d="M19.639,25.697h2.656l-1.328,-5.068z" fill="#1c0802"></path></g></g></svg>