<?xml version="1.0" encoding="UTF-8"?>
<svg xmlns="http://www.w3.org/2000/svg" xmlns:xlink="http://www.w3.org/1999/xlink" width="106px" height="48px" viewBox="0 0 106 48" version="1.1">
<defs>
<linearGradient id="linear0" gradientUnits="userSpaceOnUse" x1="4775.75" y1="986.71" x2="5032.69" y2="338.71" gradientTransform="matrix(0.0656554,0,0,0.0657335,-290.378113,-39.10413)">
<stop offset="0.02" style="stop-color:rgb(60%,60%,60%);stop-opacity:1;"/>
<stop offset="0.14" style="stop-color:rgb(66.27451%,66.27451%,66.27451%);stop-opacity:1;"/>
<stop offset="0.53" style="stop-color:rgb(84.313725%,84.313725%,84.313725%);stop-opacity:1;"/>
<stop offset="0.83" style="stop-color:rgb(95.686275%,95.686275%,95.686275%);stop-opacity:1;"/>
<stop offset="1" style="stop-color:rgb(100%,100%,100%);stop-opacity:1;"/>
</linearGradient>
<linearGradient id="linear1" gradientUnits="userSpaceOnUse" x1="5899.45" y1="1432.28" x2="6156.39" y2="784.28" gradientTransform="matrix(0.0656554,0,0,0.0657335,-290.378113,-39.10413)">
<stop offset="0.02" style="stop-color:rgb(60%,60%,60%);stop-opacity:1;"/>
<stop offset="0.14" style="stop-color:rgb(66.27451%,66.27451%,66.27451%);stop-opacity:1;"/>
<stop offset="0.53" style="stop-color:rgb(84.313725%,84.313725%,84.313725%);stop-opacity:1;"/>
<stop offset="0.83" style="stop-color:rgb(95.686275%,95.686275%,95.686275%);stop-opacity:1;"/>
<stop offset="1" style="stop-color:rgb(100%,100%,100%);stop-opacity:1;"/>
</linearGradient>
<linearGradient id="linear2" gradientUnits="userSpaceOnUse" x1="4819.17" y1="1003.93" x2="5076.11" y2="355.93" gradientTransform="matrix(0.0656554,0,0,0.0657335,-290.378113,-39.10413)">
<stop offset="0.02" style="stop-color:rgb(60%,60%,60%);stop-opacity:1;"/>
<stop offset="0.14" style="stop-color:rgb(66.27451%,66.27451%,66.27451%);stop-opacity:1;"/>
<stop offset="0.53" style="stop-color:rgb(84.313725%,84.313725%,84.313725%);stop-opacity:1;"/>
<stop offset="0.83" style="stop-color:rgb(95.686275%,95.686275%,95.686275%);stop-opacity:1;"/>
<stop offset="1" style="stop-color:rgb(100%,100%,100%);stop-opacity:1;"/>
</linearGradient>
<linearGradient id="linear3" gradientUnits="userSpaceOnUse" x1="5397.7" y1="1233.33" x2="5654.64" y2="585.33" gradientTransform="matrix(0.0656554,0,0,0.0657335,-290.378113,-39.10413)">
<stop offset="0.02" style="stop-color:rgb(60%,60%,60%);stop-opacity:1;"/>
<stop offset="0.14" style="stop-color:rgb(66.27451%,66.27451%,66.27451%);stop-opacity:1;"/>
<stop offset="0.53" style="stop-color:rgb(84.313725%,84.313725%,84.313725%);stop-opacity:1;"/>
<stop offset="0.83" style="stop-color:rgb(95.686275%,95.686275%,95.686275%);stop-opacity:1;"/>
<stop offset="1" style="stop-color:rgb(100%,100%,100%);stop-opacity:1;"/>
</linearGradient>
<linearGradient id="linear4" gradientUnits="userSpaceOnUse" x1="5684.33" y1="1346.98" x2="5941.27" y2="698.98" gradientTransform="matrix(0.0656554,0,0,0.0657335,-290.378113,-39.10413)">
<stop offset="0.02" style="stop-color:rgb(60%,60%,60%);stop-opacity:1;"/>
<stop offset="0.14" style="stop-color:rgb(66.27451%,66.27451%,66.27451%);stop-opacity:1;"/>
<stop offset="0.53" style="stop-color:rgb(84.313725%,84.313725%,84.313725%);stop-opacity:1;"/>
<stop offset="0.83" style="stop-color:rgb(95.686275%,95.686275%,95.686275%);stop-opacity:1;"/>
<stop offset="1" style="stop-color:rgb(100%,100%,100%);stop-opacity:1;"/>
</linearGradient>
</defs>
<g id="surface1">
<path style=" stroke:none;fill-rule:nonzero;fill:url(#linear0);" d="M 27.6875 26.359375 L 27.6875 32.984375 L 22.589844 32.984375 C 22.558594 32.984375 22.523438 32.984375 22.492188 32.984375 C 21.058594 32.984375 19.898438 31.820312 19.898438 30.386719 L 19.898438 10.84375 L 15.234375 10.84375 L 15.234375 30.386719 L 15.242188 30.386719 C 15.242188 30.457031 15.234375 30.53125 15.234375 30.601562 C 15.234375 34.433594 18.332031 37.546875 22.160156 37.558594 L 32.351562 37.558594 L 32.351562 10.84375 L 27.691406 10.84375 Z M 27.6875 26.359375 "/>
<path style=" stroke:none;fill-rule:nonzero;fill:url(#linear1);" d="M 104.453125 34.558594 C 103.597656 34.558594 102.90625 35.25 102.90625 36.105469 C 102.90625 36.960938 103.597656 37.652344 104.453125 37.652344 C 105.308594 37.652344 106 36.960938 106 36.105469 C 106 35.25 105.308594 34.558594 104.453125 34.558594 Z M 104.453125 37.144531 C 104.183594 37.144531 103.925781 37.039062 103.730469 36.851562 L 103.9375 36.605469 C 104.078125 36.746094 104.265625 36.828125 104.464844 36.835938 C 104.6875 36.835938 104.8125 36.734375 104.8125 36.578125 C 104.8125 36.421875 104.679688 36.359375 104.5 36.28125 L 104.226562 36.164062 C 104.03125 36.082031 103.820312 35.925781 103.820312 35.628906 C 103.820312 35.3125 104.105469 35.0625 104.496094 35.0625 C 104.726562 35.066406 104.949219 35.15625 105.113281 35.320312 L 104.929688 35.546875 C 104.8125 35.4375 104.65625 35.375 104.496094 35.375 C 104.304688 35.375 104.179688 35.460938 104.179688 35.609375 C 104.179688 35.769531 104.332031 35.824219 104.5 35.894531 L 104.769531 36.007812 C 105.007812 36.105469 105.175781 36.257812 105.175781 36.550781 C 105.175781 36.875 104.90625 37.148438 104.453125 37.148438 Z M 104.453125 37.144531 "/>
<path style=" stroke:none;fill-rule:nonzero;fill:url(#linear2);" d="M 48.722656 9.339844 C 47.023438 9.339844 45.363281 9.820312 43.929688 10.726562 L 43.929688 10.636719 L 43.875 10.636719 C 39.570312 4.226562 32.257812 0.0078125 23.964844 0.0078125 C 10.730469 0.0078125 0 10.75 0 24 C 0 37.25 10.730469 47.992188 23.964844 47.992188 C 32.261719 47.992188 39.570312 43.769531 43.871094 37.355469 L 43.929688 37.355469 L 43.929688 37.292969 L 43.933594 37.285156 L 43.929688 37.285156 L 43.929688 18.214844 L 43.933594 18.214844 C 44.003906 15.582031 46.179688 13.5 48.8125 13.550781 C 51.441406 13.597656 53.539062 15.757812 53.515625 18.390625 C 53.492188 21.023438 51.351562 23.144531 48.722656 23.144531 L 48.722656 27.351562 C 53.6875 27.351562 57.714844 23.320312 57.714844 18.347656 C 57.714844 13.375 53.6875 9.339844 48.722656 9.339844 Z M 39.121094 37.332031 C 35.296875 41.703125 29.769531 44.207031 23.964844 44.199219 C 12.820312 44.199219 3.785156 35.15625 3.785156 24 C 3.785156 12.84375 12.820312 3.800781 23.964844 3.800781 C 29.769531 3.792969 35.296875 6.296875 39.121094 10.667969 Z M 39.121094 37.332031 "/>
<path style=" stroke:none;fill-rule:nonzero;fill:url(#linear3);" d="M 75.925781 33.089844 L 75.929688 33.074219 L 75.722656 33.03125 L 75.449219 33.019531 C 75.3125 33.007812 75.171875 33 75.03125 33 L 74.90625 33 L 74.804688 32.996094 L 74.804688 33 L 69.839844 33 C 69.808594 33 69.773438 33 69.742188 33 C 68.308594 33 67.148438 31.835938 67.148438 30.402344 L 67.148438 26.75 L 79.578125 26.75 L 79.578125 21.9375 L 67.144531 21.9375 L 67.144531 15.640625 L 79.574219 15.640625 L 79.574219 10.828125 L 63.175781 10.828125 L 63.175781 10.855469 L 62.480469 10.855469 L 62.480469 30.402344 L 62.484375 30.402344 C 62.484375 30.472656 62.480469 30.542969 62.480469 30.617188 C 62.480469 34.449219 65.578125 37.558594 69.40625 37.574219 L 79.597656 37.574219 C 79.597656 35.390625 78.0625 33.515625 75.925781 33.089844 Z M 75.925781 33.089844 "/>
<path style=" stroke:none;fill-rule:nonzero;fill:url(#linear4);" d="M 100.140625 28.035156 C 100.109375 26.472656 99.519531 24.972656 98.480469 23.8125 C 99.519531 22.71875 100.113281 21.277344 100.140625 19.769531 L 100.296875 10.894531 C 98.402344 10.859375 96.746094 12.171875 96.34375 14.023438 L 96.332031 14.019531 L 96.289062 14.199219 L 96.277344 14.4375 C 96.265625 14.558594 96.253906 14.679688 96.253906 14.800781 L 96.253906 14.910156 L 96.25 15 L 96.253906 15 L 96.230469 16.261719 L 96.175781 19.324219 C 96.175781 19.351562 96.175781 19.378906 96.175781 19.40625 C 96.15625 20.65625 95.125 21.648438 93.878906 21.625 L 89.929688 21.5625 L 89.929688 10.976562 L 85.269531 10.976562 L 85.269531 37.679688 L 89.929688 37.679688 L 89.929688 26.085938 L 93.367188 26.027344 C 94.714844 26.003906 95.828125 27.078125 95.851562 28.425781 C 95.851562 28.457031 95.851562 28.488281 95.851562 28.519531 L 95.933594 33.191406 L 95.929688 33.191406 L 95.933594 33.285156 L 95.933594 33.40625 C 95.933594 33.535156 95.945312 33.667969 95.960938 33.800781 L 95.972656 34.054688 L 96.019531 34.253906 L 96.03125 34.246094 C 96.46875 36.25 98.257812 37.667969 100.304688 37.632812 L 100.136719 28.035156 Z M 100.140625 28.035156 "/>
</g>
</svg>
