<?xml version="1.0" encoding="UTF-8"?>
<svg xmlns="http://www.w3.org/2000/svg" xmlns:xlink="http://www.w3.org/1999/xlink" width="93px" height="42px" viewBox="0 0 92 42" version="1.1">
<defs>
<linearGradient id="linear0" gradientUnits="userSpaceOnUse" x1="4775.75" y1="986.71" x2="5032.69" y2="338.71" gradientTransform="matrix(0.0569839,0,0,0.0575168,-252.026287,-34.216114)">
<stop offset="0.02" style="stop-color:rgb(60%,60%,60%);stop-opacity:1;"/>
<stop offset="0.14" style="stop-color:rgb(66.27451%,66.27451%,66.27451%);stop-opacity:1;"/>
<stop offset="0.53" style="stop-color:rgb(84.313725%,84.313725%,84.313725%);stop-opacity:1;"/>
<stop offset="0.83" style="stop-color:rgb(95.686275%,95.686275%,95.686275%);stop-opacity:1;"/>
<stop offset="1" style="stop-color:rgb(100%,100%,100%);stop-opacity:1;"/>
</linearGradient>
<linearGradient id="linear1" gradientUnits="userSpaceOnUse" x1="5899.45" y1="1432.28" x2="6156.39" y2="784.28" gradientTransform="matrix(0.0569839,0,0,0.0575168,-252.026287,-34.216114)">
<stop offset="0.02" style="stop-color:rgb(60%,60%,60%);stop-opacity:1;"/>
<stop offset="0.14" style="stop-color:rgb(66.27451%,66.27451%,66.27451%);stop-opacity:1;"/>
<stop offset="0.53" style="stop-color:rgb(84.313725%,84.313725%,84.313725%);stop-opacity:1;"/>
<stop offset="0.83" style="stop-color:rgb(95.686275%,95.686275%,95.686275%);stop-opacity:1;"/>
<stop offset="1" style="stop-color:rgb(100%,100%,100%);stop-opacity:1;"/>
</linearGradient>
<linearGradient id="linear2" gradientUnits="userSpaceOnUse" x1="4819.17" y1="1003.93" x2="5076.11" y2="355.93" gradientTransform="matrix(0.0569839,0,0,0.0575168,-252.026287,-34.216114)">
<stop offset="0.02" style="stop-color:rgb(60%,60%,60%);stop-opacity:1;"/>
<stop offset="0.14" style="stop-color:rgb(66.27451%,66.27451%,66.27451%);stop-opacity:1;"/>
<stop offset="0.53" style="stop-color:rgb(84.313725%,84.313725%,84.313725%);stop-opacity:1;"/>
<stop offset="0.83" style="stop-color:rgb(95.686275%,95.686275%,95.686275%);stop-opacity:1;"/>
<stop offset="1" style="stop-color:rgb(100%,100%,100%);stop-opacity:1;"/>
</linearGradient>
<linearGradient id="linear3" gradientUnits="userSpaceOnUse" x1="5397.7" y1="1233.33" x2="5654.64" y2="585.33" gradientTransform="matrix(0.0569839,0,0,0.0575168,-252.026287,-34.216114)">
<stop offset="0.02" style="stop-color:rgb(60%,60%,60%);stop-opacity:1;"/>
<stop offset="0.14" style="stop-color:rgb(66.27451%,66.27451%,66.27451%);stop-opacity:1;"/>
<stop offset="0.53" style="stop-color:rgb(84.313725%,84.313725%,84.313725%);stop-opacity:1;"/>
<stop offset="0.83" style="stop-color:rgb(95.686275%,95.686275%,95.686275%);stop-opacity:1;"/>
<stop offset="1" style="stop-color:rgb(100%,100%,100%);stop-opacity:1;"/>
</linearGradient>
<linearGradient id="linear4" gradientUnits="userSpaceOnUse" x1="5684.33" y1="1346.98" x2="5941.27" y2="698.98" gradientTransform="matrix(0.0569839,0,0,0.0575168,-252.026287,-34.216114)">
<stop offset="0.02" style="stop-color:rgb(60%,60%,60%);stop-opacity:1;"/>
<stop offset="0.14" style="stop-color:rgb(66.27451%,66.27451%,66.27451%);stop-opacity:1;"/>
<stop offset="0.53" style="stop-color:rgb(84.313725%,84.313725%,84.313725%);stop-opacity:1;"/>
<stop offset="0.83" style="stop-color:rgb(95.686275%,95.686275%,95.686275%);stop-opacity:1;"/>
<stop offset="1" style="stop-color:rgb(100%,100%,100%);stop-opacity:1;"/>
</linearGradient>
</defs>
<g id="surface1">
<path style=" stroke:none;fill-rule:nonzero;fill:url(#linear0);" d="M 24.03125 23.066406 L 24.03125 28.859375 L 19.605469 28.859375 C 19.578125 28.859375 19.546875 28.859375 19.523438 28.859375 C 18.277344 28.859375 17.269531 27.84375 17.269531 26.589844 L 17.269531 9.488281 L 13.222656 9.488281 L 13.222656 26.589844 L 13.230469 26.589844 C 13.230469 26.648438 13.222656 26.714844 13.222656 26.777344 C 13.222656 30.128906 15.910156 32.851562 19.234375 32.863281 L 28.078125 32.863281 L 28.078125 9.488281 L 24.035156 9.488281 Z M 24.03125 23.066406 "/>
<path style=" stroke:none;fill-rule:nonzero;fill:url(#linear1);" d="M 90.65625 30.238281 C 89.914062 30.238281 89.316406 30.84375 89.316406 31.59375 C 89.316406 32.339844 89.914062 32.945312 90.65625 32.945312 C 91.398438 32.945312 92 32.339844 92 31.59375 C 92 30.84375 91.398438 30.238281 90.65625 30.238281 Z M 90.65625 32.5 C 90.421875 32.5 90.199219 32.410156 90.03125 32.246094 L 90.210938 32.03125 C 90.332031 32.152344 90.496094 32.226562 90.667969 32.230469 C 90.859375 32.230469 90.96875 32.144531 90.96875 32.007812 C 90.96875 31.867188 90.855469 31.8125 90.699219 31.746094 L 90.460938 31.644531 C 90.292969 31.570312 90.109375 31.433594 90.109375 31.175781 C 90.109375 30.898438 90.355469 30.679688 90.695312 30.679688 C 90.894531 30.683594 91.089844 30.761719 91.230469 30.90625 L 91.070312 31.101562 C 90.96875 31.007812 90.832031 30.953125 90.695312 30.953125 C 90.527344 30.953125 90.421875 31.027344 90.421875 31.160156 C 90.421875 31.296875 90.550781 31.347656 90.699219 31.40625 L 90.933594 31.507812 C 91.140625 31.59375 91.285156 31.726562 91.285156 31.980469 C 91.285156 32.265625 91.050781 32.503906 90.65625 32.503906 Z M 90.65625 32.5 "/>
<path style=" stroke:none;fill-rule:nonzero;fill:url(#linear2);" d="M 42.289062 8.171875 C 40.8125 8.171875 39.371094 8.59375 38.128906 9.386719 L 38.128906 9.308594 L 38.082031 9.308594 C 34.34375 3.699219 27.996094 0.0078125 20.800781 0.0078125 C 9.3125 0.0078125 0 9.40625 0 21 C 0 32.59375 9.3125 41.992188 20.800781 41.992188 C 28 41.992188 34.34375 38.296875 38.078125 32.6875 L 38.128906 32.6875 L 38.128906 32.632812 L 38.132812 32.625 L 38.128906 32.625 L 38.128906 15.9375 L 38.132812 15.9375 C 38.191406 13.632812 40.082031 11.8125 42.367188 11.855469 C 44.648438 11.898438 46.46875 13.789062 46.449219 16.09375 C 46.425781 18.394531 44.570312 20.25 42.289062 20.25 L 42.289062 23.933594 C 46.597656 23.933594 50.09375 20.40625 50.09375 16.054688 C 50.09375 11.703125 46.597656 8.171875 42.289062 8.171875 Z M 33.953125 32.664062 C 30.636719 36.492188 25.835938 38.679688 20.800781 38.675781 C 11.128906 38.675781 3.285156 30.761719 3.285156 21 C 3.285156 11.238281 11.128906 3.324219 20.800781 3.324219 C 25.835938 3.320312 30.636719 5.507812 33.953125 9.335938 Z M 33.953125 32.664062 "/>
<path style=" stroke:none;fill-rule:nonzero;fill:url(#linear3);" d="M 65.898438 28.953125 L 65.902344 28.941406 L 65.722656 28.902344 L 65.484375 28.890625 C 65.367188 28.882812 65.242188 28.875 65.121094 28.875 L 65.011719 28.875 L 64.925781 28.871094 L 64.925781 28.875 L 60.617188 28.875 C 60.589844 28.875 60.558594 28.875 60.53125 28.875 C 59.285156 28.875 58.28125 27.855469 58.28125 26.601562 L 58.28125 23.40625 L 69.066406 23.40625 L 69.066406 19.195312 L 58.277344 19.195312 L 58.277344 13.683594 L 69.0625 13.683594 L 69.0625 9.472656 L 54.832031 9.472656 L 54.832031 9.5 L 54.226562 9.5 L 54.226562 26.601562 L 54.230469 26.601562 C 54.230469 26.664062 54.226562 26.726562 54.226562 26.789062 C 54.226562 30.144531 56.917969 32.863281 60.238281 32.878906 L 69.085938 32.878906 C 69.085938 30.96875 67.753906 29.328125 65.898438 28.953125 Z M 65.898438 28.953125 "/>
<path style=" stroke:none;fill-rule:nonzero;fill:url(#linear4);" d="M 86.914062 24.53125 C 86.886719 23.164062 86.375 21.851562 85.472656 20.835938 C 86.375 19.878906 86.890625 18.617188 86.914062 17.296875 L 87.050781 9.53125 C 85.40625 9.5 83.96875 10.648438 83.617188 12.269531 L 83.609375 12.265625 L 83.570312 12.425781 L 83.5625 12.632812 C 83.550781 12.738281 83.542969 12.84375 83.542969 12.949219 L 83.542969 13.046875 L 83.539062 13.125 L 83.542969 13.125 L 83.519531 14.230469 L 83.472656 16.910156 C 83.472656 16.933594 83.472656 16.957031 83.472656 16.980469 C 83.457031 18.074219 82.5625 18.941406 81.480469 18.921875 L 78.050781 18.867188 L 78.050781 9.605469 L 74.007812 9.605469 L 74.007812 32.96875 L 78.050781 32.96875 L 78.050781 22.824219 L 81.035156 22.773438 C 82.207031 22.753906 83.171875 23.695312 83.191406 24.871094 C 83.191406 24.898438 83.191406 24.925781 83.191406 24.953125 L 83.261719 29.042969 L 83.257812 29.042969 L 83.261719 29.125 L 83.261719 29.230469 C 83.261719 29.34375 83.273438 29.460938 83.285156 29.574219 L 83.296875 29.796875 L 83.335938 29.972656 L 83.347656 29.964844 C 83.726562 31.71875 85.28125 32.960938 87.058594 32.929688 L 86.910156 24.53125 Z M 86.914062 24.53125 "/>
</g>
</svg>
