<svg xmlns="http://www.w3.org/2000/svg" xmlns:xlink="http://www.w3.org/1999/xlink" viewBox="0,0,256,256" width="48px" height="48px" fill-rule="nonzero"><g transform="translate(-75.52,-75.52) scale(1.59,1.59)"><g fill="#dcdcdc" fill-rule="nonzero" stroke="none" stroke-width="1" stroke-linecap="butt" stroke-linejoin="miter" stroke-miterlimit="10" stroke-dasharray="" stroke-dashoffset="0" font-family="none" font-weight="none" font-size="none" text-anchor="none" style="mix-blend-mode: normal"><path d="M100.62893,208.50314c-29.34404,0 -53.13208,-23.78804 -53.13208,-53.13208v-54.74214c0,-29.34404 23.78804,-53.13208 53.13208,-53.13208h54.74214c29.34404,0 53.13208,23.78804 53.13208,53.13208v54.74214c0,29.34404 -23.78804,53.13208 -53.13208,53.13208z" id="shape"></path></g><g fill="#000000" fill-rule="nonzero" stroke="none" stroke-width="1" stroke-linecap="butt" stroke-linejoin="miter" stroke-miterlimit="10" stroke-dasharray="" stroke-dashoffset="0" font-family="none" font-weight="none" font-size="none" text-anchor="none" style="mix-blend-mode: normal"><g transform="scale(4,4)"><path d="M23.77344,12c-10.918,0 -11.77344,0.85444 -11.77344,11.77344v16.45312c0,10.918 0.85544,11.77344 11.77344,11.77344h16.45312c10.918,0 11.77344,-0.85444 11.77344,-11.77344v-16.45312c0,-10.919 -0.85444,-11.77344 -11.77344,-11.77344zM21.16797,16h21.66406c4.793,0 5.16797,0.37497 5.16797,5.16797v21.66406c0,4.793 -0.37597,5.16797 -5.16797,5.16797h-21.66406c-4.793,0 -5.16797,-0.37597 -5.16797,-5.16797v-21.66406c0,-4.793 0.37497,-5.16797 5.16797,-5.16797zM26.28516,24.58984c-4.092,0 -7.41016,3.31816 -7.41016,7.41016c0,4.092 3.31816,7.41016 7.41016,7.41016c4.092,0 7.41016,-3.31816 7.41016,-7.41016c0,-4.092 -3.31816,-7.41016 -7.41016,-7.41016zM38.10352,24.94727c-2.026,0 -3.66797,3.15773 -3.66797,7.05273c0,3.895 1.64197,7.05273 3.66797,7.05273c2.026,0 3.66797,-3.15873 3.66797,-7.05273c0,-3.895 -1.64197,-7.05273 -3.66797,-7.05273zM43.80078,25.70117c-0.704,0 -1.27539,2.81983 -1.27539,6.29883c0,3.479 0.57139,6.29883 1.27539,6.29883c0.705,0 1.27344,-2.81983 1.27344,-6.29883c0,-3.479 -0.56944,-6.29883 -1.27344,-6.29883z"></path></g></g></g></svg>