<?xml version="1.0" encoding="UTF-8"?>
<svg xmlns="http://www.w3.org/2000/svg" xmlns:xlink="http://www.w3.org/1999/xlink" width="48px" height="48px" viewBox="0 0 48 47" version="1.1">
<g id="surface1">
<path style=" stroke:none;fill-rule:nonzero;fill:rgb(34.901961%,58.823529%,21.176471%);fill-opacity:1;" d="M 22.089844 6.109375 L 23.128906 8.023438 C 23.363281 8.375 23.617188 8.6875 23.914062 8.980469 C 24.789062 9.828125 25.605469 10.730469 26.355469 11.683594 C 28.121094 13.949219 29.308594 16.464844 30.15625 19.1875 C 30.667969 20.851562 30.941406 22.554688 30.964844 24.28125 C 31.050781 29.4375 29.242188 33.863281 25.605469 37.542969 C 25.011719 38.125 24.371094 38.660156 23.691406 39.144531 C 23.332031 39.144531 23.160156 38.871094 23.011719 38.625 C 22.742188 38.160156 22.5625 37.652344 22.480469 37.125 C 22.351562 36.503906 22.269531 35.878906 22.3125 35.234375 L 22.3125 34.945312 C 22.28125 34.882812 21.964844 6.257812 22.089844 6.109375 Z M 22.089844 6.109375 "/>
<path style=" stroke:none;fill-rule:nonzero;fill:rgb(42.352941%,67.45098%,28.235294%);fill-opacity:1;" d="M 22.089844 6.046875 C 22.046875 5.964844 22.003906 6.027344 21.960938 6.066406 C 21.984375 6.484375 21.835938 6.855469 21.601562 7.210938 C 21.347656 7.566406 21.007812 7.835938 20.667969 8.128906 C 18.78125 9.726562 17.292969 11.660156 16.101562 13.824219 C 14.519531 16.734375 13.703125 19.851562 13.472656 23.136719 C 13.367188 24.320312 13.855469 28.5 14.234375 29.707031 C 15.277344 32.90625 17.144531 35.589844 19.566406 37.917969 C 20.160156 38.476562 20.796875 39 21.453125 39.496094 C 21.644531 39.496094 21.664062 39.332031 21.707031 39.207031 C 21.792969 38.941406 21.855469 38.671875 21.898438 38.394531 L 22.328125 35.277344 Z M 22.089844 6.046875 "/>
<path style=" stroke:none;fill-rule:nonzero;fill:rgb(76.078431%,74.901961%,74.901961%);fill-opacity:1;" d="M 23.128906 40.410156 C 23.171875 39.933594 23.40625 39.539062 23.660156 39.140625 C 23.40625 39.039062 23.214844 38.832031 23.066406 38.601562 C 22.9375 38.382812 22.832031 38.15625 22.75 37.917969 C 22.453125 37.042969 22.390625 36.128906 22.304688 35.234375 L 22.304688 34.695312 C 22.199219 34.777344 22.175781 35.484375 22.175781 35.589844 C 22.113281 36.53125 21.988281 37.46875 21.792969 38.394531 C 21.730469 38.769531 21.6875 39.144531 21.453125 39.476562 C 21.453125 39.519531 21.453125 39.558594 21.472656 39.621094 C 21.855469 40.722656 21.960938 41.847656 22.027344 42.988281 L 22.027344 43.40625 C 22.027344 43.90625 22.003906 43.800781 22.425781 43.96875 C 22.597656 44.03125 22.789062 44.050781 22.957031 44.175781 C 23.085938 44.175781 23.105469 44.070312 23.105469 43.988281 L 23.042969 43.300781 L 23.042969 41.390625 C 23.023438 41.054688 23.085938 40.722656 23.128906 40.410156 Z M 23.128906 40.410156 "/>
</g>
</svg>
