<?xml version="1.0" encoding="UTF-8"?>
<svg xmlns="http://www.w3.org/2000/svg" xmlns:xlink="http://www.w3.org/1999/xlink" width="42px" height="48px" viewBox="0 0 42 48" version="1.1">
<g id="surface1">
<path style=" stroke:none;fill-rule:evenodd;fill:rgb(63.137255%,77.254902%,20.784314%);fill-opacity:1;" d="M 21 0 L 21 9.28125 L 8.136719 16.6875 L 0 12 Z M 21 0 "/>
<path style=" stroke:none;fill-rule:evenodd;fill:rgb(67.843137%,83.137255%,22.352941%);fill-opacity:1;" d="M 42 12 L 33.863281 16.6875 L 21 9.28125 L 21 0 Z M 42 12 "/>
<path style=" stroke:none;fill-rule:evenodd;fill:rgb(10.588235%,41.568627%,77.647059%);fill-opacity:1;" d="M 42 36 L 33.863281 31.3125 L 33.863281 16.6875 L 42 12 Z M 42 36 "/>
<path style=" stroke:none;fill-rule:evenodd;fill:rgb(18.039216%,56.470588%,90.980392%);fill-opacity:1;" d="M 21 48 L 21 38.71875 L 33.863281 31.3125 L 42 36 Z M 21 48 "/>
<path style=" stroke:none;fill-rule:evenodd;fill:rgb(91.764706%,12.54902%,36.862745%);fill-opacity:1;" d="M 0 36 L 8.136719 31.3125 L 21 38.71875 L 21 48 Z M 0 36 "/>
<path style=" stroke:none;fill-rule:evenodd;fill:rgb(64.705882%,2.745098%,24.313725%);fill-opacity:1;" d="M 0 12 L 8.136719 16.6875 L 8.136719 31.3125 L 0 36 Z M 0 12 "/>
<path style=" stroke:none;fill-rule:evenodd;fill:rgb(94.509804%,96.470588%,88.627451%);fill-opacity:1;" d="M 8.136719 16.6875 L 21 9.28125 L 33.863281 16.6875 L 21 24 Z M 8.136719 16.6875 "/>
<path style=" stroke:none;fill-rule:evenodd;fill:rgb(80.784314%,85.882353%,90.196078%);fill-opacity:1;" d="M 21 24 L 33.863281 16.6875 L 33.863281 31.3125 L 21 38.71875 Z M 21 24 "/>
<path style=" stroke:none;fill-rule:evenodd;fill:rgb(100%,100%,100%);fill-opacity:1;" d="M 8.136719 16.6875 L 21 24 L 21 38.71875 L 8.136719 31.3125 Z M 8.136719 16.6875 "/>
</g>
</svg>
