<svg xmlns="http://www.w3.org/2000/svg"  viewBox="0 0 30 30" width="48px" height="48px"><path fill="#dcd5f2" d="M15,22.5c-7.995,0-14.5-3.364-14.5-7.5S7.005,7.5,15,7.5s14.5,3.364,14.5,7.5S22.995,22.5,15,22.5z"/><path fill="#8b75a1" d="M15,8c7.589,0,14,3.206,14,7s-6.411,7-14,7S1,18.794,1,15S7.411,8,15,8 M15,7C6.716,7,0,10.582,0,15 s6.716,8,15,8s15-3.582,15-8S23.284,7,15,7L15,7z"/><path fill="#36404d" d="M9.417 13c.598 0 1.116.203 1.384.543.192.244.245.555.157.927C10.69 15.599 10.216 16 8.089 16H6.58l.563-3H9.417M9.417 12H6.313L5 19h1l.396-2h1.693c2.199 0 3.395-.417 3.842-2.299C12.316 13.084 11.039 12 9.417 12L9.417 12zM22.417 13c.598 0 1.116.203 1.384.543.192.244.245.555.157.927C23.69 15.599 23.216 16 21.089 16H19.58l.563-3H22.417M22.417 12h-3.104L18 19h1l.396-2h1.693c2.199 0 3.395-.417 3.842-2.299C25.316 13.084 24.039 12 22.417 12L22.417 12z"/><g><path fill="#36404d" d="M17.652,12.424C17.323,12.122,16.742,12,15.875,12h-1.848l0.451-2h-1.017L12,17h1.016l0.841-4h0.171 h1.848c0.91,0,1.094,0.155,1.096,0.155c0.019,0.03,0.058,0.194-0.008,0.532L16.288,17h1.046l0.61-3.121 C18.075,13.212,17.976,12.722,17.652,12.424z"/></g></svg>