<?xml version="1.0" encoding="UTF-8"?>
<svg xmlns="http://www.w3.org/2000/svg" xmlns:xlink="http://www.w3.org/1999/xlink" width="46px" height="46px" viewBox="0 0 46 46" version="1.1">
<g id="surface1">
<path style=" stroke:none;fill-rule:nonzero;fill:rgb(100%,27.058824%,0%);fill-opacity:1;" d="M 44.5625 23 C 44.5625 34.90625 34.90625 44.5625 23 44.5625 C 11.09375 44.5625 1.4375 34.90625 1.4375 23 C 1.4375 11.09375 11.09375 1.4375 23 1.4375 C 34.90625 1.4375 44.5625 11.09375 44.5625 23 Z M 44.5625 23 "/>
<path style=" stroke:none;fill-rule:nonzero;fill:rgb(100%,100%,100%);fill-opacity:1;" d="M 37.375 23 C 37.375 21.414062 36.085938 20.125 34.5 20.125 C 33.460938 20.125 32.546875 20.679688 32.039062 21.515625 C 29.960938 19.898438 27.015625 18.851562 23.722656 18.714844 L 25.019531 10.949219 L 30.015625 12.195312 C 30.070312 12.210938 30.132812 12.203125 30.1875 12.203125 C 30.1875 12.210938 30.1875 12.214844 30.1875 12.21875 C 30.1875 13.410156 31.152344 14.375 32.34375 14.375 C 33.535156 14.375 34.5 13.410156 34.5 12.21875 C 34.5 11.027344 33.535156 10.0625 32.34375 10.0625 C 31.636719 10.0625 31.019531 10.40625 30.625 10.929688 C 30.546875 10.871094 30.460938 10.824219 30.359375 10.804688 L 24.609375 9.367188 C 24.414062 9.3125 24.210938 9.351562 24.042969 9.460938 C 23.875 9.570312 23.761719 9.746094 23.730469 9.941406 L 22.292969 18.566406 C 22.28125 18.621094 22.292969 18.664062 22.296875 18.714844 C 18.996094 18.847656 16.042969 19.898438 13.960938 21.515625 C 13.453125 20.679688 12.539062 20.125 11.5 20.125 C 9.914062 20.125 8.625 21.414062 8.625 23 C 8.625 24.40625 9.632812 25.570312 10.96875 25.828125 C 10.84375 26.304688 10.78125 26.804688 10.78125 27.3125 C 10.78125 32.078125 16.25 35.9375 23 35.9375 C 29.75 35.9375 35.21875 32.078125 35.21875 27.3125 C 35.21875 26.804688 35.15625 26.304688 35.03125 25.828125 C 36.367188 25.570312 37.375 24.40625 37.375 23 Z M 15.8125 25.15625 C 15.8125 23.964844 16.777344 23 17.96875 23 C 19.160156 23 20.125 23.964844 20.125 25.15625 C 20.125 26.347656 19.160156 27.3125 17.96875 27.3125 C 16.777344 27.3125 15.8125 26.347656 15.8125 25.15625 Z M 28.472656 31.261719 C 26.996094 32.421875 25.046875 33.0625 23 33.0625 C 20.953125 33.0625 19.003906 32.421875 17.527344 31.261719 C 17.210938 31.019531 17.15625 30.566406 17.402344 30.253906 C 17.648438 29.945312 18.101562 29.886719 18.410156 30.132812 C 19.640625 31.09375 21.269531 31.625 23 31.625 C 24.730469 31.625 26.359375 31.09375 27.589844 30.132812 C 27.898438 29.886719 28.351562 29.945312 28.597656 30.253906 C 28.84375 30.566406 28.789062 31.019531 28.472656 31.261719 Z M 28.03125 27.3125 C 26.839844 27.3125 25.875 26.347656 25.875 25.15625 C 25.875 23.964844 26.839844 23 28.03125 23 C 29.222656 23 30.1875 23.964844 30.1875 25.15625 C 30.1875 26.347656 29.222656 27.3125 28.03125 27.3125 Z M 28.03125 27.3125 "/>
</g>
</svg>
