<?xml version="1.0" encoding="UTF-8"?>
<svg xmlns="http://www.w3.org/2000/svg" xmlns:xlink="http://www.w3.org/1999/xlink" width="48px" height="48px" viewBox="0 0 48 48" version="1.1">
<defs>
<filter id="alpha" filterUnits="objectBoundingBox" x="0%" y="0%" width="100%" height="100%">
  <feColorMatrix type="matrix" in="SourceGraphic" values="0 0 0 0 1 0 0 0 0 1 0 0 0 0 1 0 0 0 1 0"/>
</filter>
<mask id="mask0">
  <g filter="url(#alpha)">
<rect x="0" y="0" width="48" height="48" style="fill:rgb(0%,0%,0%);fill-opacity:0.980392;stroke:none;"/>
  </g>
</mask>
<clipPath id="clip1">
  <rect x="0" y="0" width="48" height="48"/>
</clipPath>
<g id="surface5" clip-path="url(#clip1)">
<path style=" stroke:none;fill-rule:evenodd;fill:rgb(79.607843%,20%,19.607843%);fill-opacity:1;" d="M 23.765625 0.140625 C 23.863281 0.125 23.957031 0.140625 24.046875 0.1875 C 30.707031 6.816406 37.332031 13.472656 43.921875 20.15625 C 40.472656 23.699219 36.988281 27.214844 33.46875 30.703125 C 30.902344 28.121094 28.324219 25.558594 25.734375 23.015625 C 27.578125 21.140625 29.421875 19.265625 31.265625 17.390625 C 28.796875 14.875 26.3125 12.375 23.8125 9.890625 C 21.34375 12.34375 18.890625 14.8125 16.453125 17.296875 C 21.503906 22.363281 26.535156 27.441406 31.546875 32.53125 C 29.0625 35.140625 26.515625 37.6875 23.90625 40.171875 C 17.171875 33.5625 10.5 26.890625 3.890625 20.15625 C 10.5 13.46875 17.125 6.796875 23.765625 0.140625 Z M 23.765625 0.140625 "/>
</g>
<mask id="mask1">
  <g filter="url(#alpha)">
<rect x="0" y="0" width="48" height="48" style="fill:rgb(0%,0%,0%);fill-opacity:0.968627;stroke:none;"/>
  </g>
</mask>
<clipPath id="clip2">
  <rect x="0" y="0" width="48" height="48"/>
</clipPath>
<g id="surface8" clip-path="url(#clip2)">
<path style=" stroke:none;fill-rule:evenodd;fill:rgb(79.607843%,20%,19.607843%);fill-opacity:1;" d="M 7.546875 25.828125 C 7.644531 25.8125 7.738281 25.828125 7.828125 25.875 C 13.1875 31.234375 18.546875 36.59375 23.90625 41.953125 C 29.265625 36.59375 34.625 31.234375 39.984375 25.875 C 40.078125 25.8125 40.171875 25.8125 40.265625 25.875 C 41.207031 26.785156 42.113281 27.722656 42.984375 28.6875 C 36.6875 35.109375 30.328125 41.46875 23.90625 47.765625 C 17.535156 41.488281 11.191406 35.175781 4.875 28.828125 C 4.8125 28.734375 4.8125 28.640625 4.875 28.546875 C 5.785156 27.652344 6.675781 26.746094 7.546875 25.828125 Z M 7.546875 25.828125 "/>
</g>
</defs>
<g id="surface1">
<use xlink:href="#surface5" mask="url(#mask0)"/>
<use xlink:href="#surface8" mask="url(#mask1)"/>
</g>
</svg>
